<?xml version="1.0" encoding="utf-8"?>
<!-- Generator: Adobe Illustrator 23.0.1, SVG Export Plug-In . SVG Version: 6.00 Build 0)  -->
<svg version="1.1" id="Layer_1" xmlns="http://www.w3.org/2000/svg" xmlns:xlink="http://www.w3.org/1999/xlink" x="0px" y="0px"
	 viewBox="0 0 792 612" style="enable-background:new 0 0 792 612;" xml:space="preserve">
<style type="text/css">
	.st0{fill:#B3B3B3;}
</style>
<g>
	<path class="st0" d="M402.26,298.22h-11.17c-1,0-1.84,0.88-1.84,1.97c0,1.04,0.74,1.89,1.7,1.97v4.93c0,2.04,1.52,3.72,3.41,3.72
		h1.09v2.87h-0.81c-0.28,0-0.5,0.23-0.5,0.48c0,0.28,0.23,0.5,0.5,0.5h3.95c0.28,0,0.5-0.23,0.5-0.5c0-0.26-0.23-0.48-0.5-0.48
		h-0.81v-2.87h1.23c1.87,0,3.41-1.68,3.41-3.72v-4.93c0.94-0.09,1.68-0.94,1.68-1.97C404.1,299.11,403.28,298.22,402.26,298.22z
		 M402.26,301.36h-0.66v5.75c0,1.59-1.16,2.91-2.6,2.91h-4.64c-1.44,0-2.6-1.32-2.6-2.91v-5.75h-0.68c-0.55,0-1.02-0.52-1.02-1.16
		c0-0.64,0.47-1.16,1.02-1.16h11.17c0.57,0,1.02,0.52,1.02,1.16C403.28,300.84,402.83,301.36,402.26,301.36z"/>
</g>
</svg>
