<?xml version="1.0" encoding="utf-8"?>
<!-- Generator: Adobe Illustrator 23.0.1, SVG Export Plug-In . SVG Version: 6.00 Build 0)  -->
<svg version="1.1" id="Layer_1" xmlns="http://www.w3.org/2000/svg" xmlns:xlink="http://www.w3.org/1999/xlink" x="0px" y="0px"
	 viewBox="0 0 792 612" style="enable-background:new 0 0 792 612;" xml:space="preserve">
<style type="text/css">
	.st0{clip-path:url(#SVGID_2_);fill:#B3B3B3;}
	.st1{fill:#B3B3B3;}
</style>
<g>
	<g>
		<defs>
			<path id="SVGID_1_" d="M395.49,300.52v-3.09c0-0.13,0.1-0.23,0.23-0.23h0.37c0.13,0,0.23,0.1,0.23,0.23v3.09
				c0,0.13-0.1,0.23-0.23,0.23h-0.37C395.59,300.75,395.49,300.64,395.49,300.52z"/>
		</defs>
		<use xlink:href="#SVGID_1_"  style="overflow:visible;fill:#B3B3B3;"/>
		<clipPath id="SVGID_2_">
			<use xlink:href="#SVGID_1_"  style="overflow:visible;"/>
		</clipPath>
		<polygon class="st0" points="396.32,297.36 396.21,297.2 396.32,297.2 		"/>
		<polygon class="st0" points="396.32,297.43 396.16,297.2 396.21,297.2 396.32,297.36 		"/>
		<polygon class="st0" points="396.32,297.5 396.12,297.2 396.16,297.2 396.32,297.43 		"/>
		<polygon class="st0" points="396.32,297.56 396.07,297.2 396.12,297.2 396.32,297.5 		"/>
		<polygon class="st0" points="396.32,297.63 396.03,297.2 396.07,297.2 396.32,297.56 		"/>
		<polygon class="st0" points="396.32,297.7 395.98,297.2 396.03,297.2 396.32,297.63 		"/>
		<polygon class="st0" points="396.32,297.76 395.94,297.2 395.98,297.2 396.32,297.7 		"/>
		<polygon class="st0" points="396.32,297.83 395.9,297.2 395.94,297.2 396.32,297.76 		"/>
		<polygon class="st0" points="396.32,297.9 395.85,297.2 395.9,297.2 396.32,297.83 		"/>
		<polygon class="st0" points="396.32,297.96 395.81,297.2 395.85,297.2 396.32,297.9 		"/>
		<polygon class="st0" points="396.32,298.03 395.76,297.2 395.81,297.2 396.32,297.96 		"/>
		<polygon class="st0" points="396.32,298.1 395.72,297.2 395.76,297.2 396.32,298.03 		"/>
		<polygon class="st0" points="396.32,298.16 395.67,297.2 395.72,297.2 396.32,298.1 		"/>
		<polygon class="st0" points="396.32,298.23 395.63,297.2 395.67,297.2 396.32,298.16 		"/>
		<polygon class="st0" points="396.32,298.29 395.58,297.2 395.63,297.2 396.32,298.23 		"/>
		<polygon class="st0" points="396.32,298.36 395.54,297.2 395.58,297.2 396.32,298.29 		"/>
		<polygon class="st0" points="396.32,298.43 395.49,297.2 395.54,297.2 396.32,298.36 		"/>
		<polygon class="st0" points="396.32,298.49 395.49,297.27 395.49,297.2 395.49,297.2 396.32,298.43 		"/>
		<polygon class="st0" points="396.32,298.56 395.49,297.33 395.49,297.27 396.32,298.49 		"/>
		<polygon class="st0" points="396.32,298.63 395.49,297.4 395.49,297.33 396.32,298.56 		"/>
		<polygon class="st0" points="396.32,298.69 395.49,297.47 395.49,297.4 396.32,298.63 		"/>
		<polygon class="st0" points="396.32,298.76 395.49,297.53 395.49,297.47 396.32,298.69 		"/>
		<polygon class="st0" points="396.32,298.83 395.49,297.6 395.49,297.53 396.32,298.76 		"/>
		<polygon class="st0" points="396.32,298.89 395.49,297.66 395.49,297.6 396.32,298.83 		"/>
		<polygon class="st0" points="396.32,298.96 395.49,297.73 395.49,297.66 396.32,298.89 		"/>
		<polygon class="st0" points="396.32,299.03 395.49,297.8 395.49,297.73 396.32,298.96 		"/>
		<polygon class="st0" points="396.32,299.09 395.49,297.86 395.49,297.8 396.32,299.03 		"/>
		<polygon class="st0" points="396.32,299.16 395.49,297.93 395.49,297.86 396.32,299.09 		"/>
		<polygon class="st0" points="396.32,299.22 395.49,298 395.49,297.93 396.32,299.16 		"/>
		<polygon class="st0" points="396.32,299.29 395.49,298.06 395.49,298 396.32,299.22 		"/>
		<polygon class="st0" points="396.32,299.36 395.49,298.13 395.49,298.06 396.32,299.29 		"/>
		<polygon class="st0" points="396.32,299.42 395.49,298.2 395.49,298.13 396.32,299.36 		"/>
		<polygon class="st0" points="396.32,299.49 395.49,298.26 395.49,298.2 396.32,299.42 		"/>
		<polygon class="st0" points="396.32,299.56 395.49,298.33 395.49,298.26 396.32,299.49 		"/>
		<polygon class="st0" points="396.32,299.62 395.49,298.4 395.49,298.33 396.32,299.56 		"/>
		<polygon class="st0" points="396.32,299.69 395.49,298.46 395.49,298.4 396.32,299.62 		"/>
		<polygon class="st0" points="396.32,299.76 395.49,298.53 395.49,298.46 396.32,299.69 		"/>
		<polygon class="st0" points="396.32,299.82 395.49,298.59 395.49,298.53 396.32,299.76 		"/>
		<polygon class="st0" points="396.32,299.89 395.49,298.66 395.49,298.59 396.32,299.82 		"/>
		<polygon class="st0" points="396.32,299.96 395.49,298.73 395.49,298.66 396.32,299.89 		"/>
		<polygon class="st0" points="396.32,300.02 395.49,298.79 395.49,298.73 396.32,299.96 		"/>
		<polygon class="st0" points="396.32,300.09 395.49,298.86 395.49,298.79 396.32,300.02 		"/>
		<polygon class="st0" points="396.32,300.16 395.49,298.93 395.49,298.86 396.32,300.09 		"/>
		<polygon class="st0" points="396.32,300.22 395.49,298.99 395.49,298.93 396.32,300.16 		"/>
		<polygon class="st0" points="396.32,300.29 395.49,299.06 395.49,298.99 396.32,300.22 		"/>
		<polygon class="st0" points="396.32,300.35 395.49,299.13 395.49,299.06 396.32,300.29 		"/>
		<polygon class="st0" points="396.32,300.42 395.49,299.19 395.49,299.13 396.32,300.35 		"/>
		<polygon class="st0" points="396.32,300.49 395.49,299.26 395.49,299.19 396.32,300.42 		"/>
		<polygon class="st0" points="396.32,300.55 395.49,299.33 395.49,299.26 396.32,300.49 		"/>
		<polygon class="st0" points="396.32,300.62 395.49,299.39 395.49,299.33 396.32,300.55 		"/>
		<polygon class="st0" points="396.32,300.69 395.49,299.46 395.49,299.39 396.32,300.62 		"/>
		<polygon class="st0" points="396.31,300.75 395.49,299.53 395.49,299.46 396.32,300.69 396.32,300.75 		"/>
		<polygon class="st0" points="396.27,300.75 395.49,299.59 395.49,299.53 396.31,300.75 		"/>
		<polygon class="st0" points="396.22,300.75 395.49,299.66 395.49,299.59 396.27,300.75 		"/>
		<polygon class="st0" points="396.18,300.75 395.49,299.72 395.49,299.66 396.22,300.75 		"/>
		<polygon class="st0" points="396.13,300.75 395.49,299.79 395.49,299.72 396.18,300.75 		"/>
		<polygon class="st0" points="396.09,300.75 395.49,299.86 395.49,299.79 396.13,300.75 		"/>
		<polygon class="st0" points="396.04,300.75 395.49,299.92 395.49,299.86 396.09,300.75 		"/>
		<polygon class="st0" points="396,300.75 395.49,299.99 395.49,299.92 396.04,300.75 		"/>
		<polygon class="st0" points="395.95,300.75 395.49,300.06 395.49,299.99 396,300.75 		"/>
		<polygon class="st0" points="395.91,300.75 395.49,300.12 395.49,300.06 395.95,300.75 		"/>
		<polygon class="st0" points="395.86,300.75 395.49,300.19 395.49,300.12 395.91,300.75 		"/>
		<polygon class="st0" points="395.82,300.75 395.49,300.26 395.49,300.19 395.86,300.75 		"/>
		<polygon class="st0" points="395.77,300.75 395.49,300.32 395.49,300.26 395.82,300.75 		"/>
		<polygon class="st0" points="395.73,300.75 395.49,300.39 395.49,300.32 395.77,300.75 		"/>
		<polygon class="st0" points="395.68,300.75 395.49,300.46 395.49,300.39 395.73,300.75 		"/>
		<polygon class="st0" points="395.64,300.75 395.49,300.52 395.49,300.46 395.68,300.75 		"/>
		<polygon class="st0" points="395.59,300.75 395.49,300.59 395.49,300.52 395.64,300.75 		"/>
		<polygon class="st0" points="395.49,300.59 395.59,300.75 395.49,300.75 		"/>
	</g>
</g>
<g>
	<path class="st1" d="M402.8,315.83H389c-1.25,0-2.27-1.1-2.27-2.45c0-1.28,0.92-2.34,2.08-2.44v-6.1c0-2.53,1.9-4.6,4.23-4.6h5.72
		c2.33,0,4.23,2.06,4.23,4.6v6.1c1.16,0.1,2.08,1.16,2.08,2.44C405.07,314.73,404.06,315.83,402.8,315.83z M389,311.94
		c-0.7,0-1.27,0.65-1.27,1.44c0,0.79,0.57,1.44,1.27,1.44h13.8c0.7,0,1.26-0.65,1.26-1.44c0-0.79-0.57-1.44-1.26-1.44h-0.82v-7.1
		c0-1.98-1.45-3.59-3.22-3.59h-5.72c-1.78,0-3.22,1.61-3.22,3.59v7.1H389z"/>
</g>
<path class="st1" d="M403.43,299.26c-1.92,0-3.48,1.56-3.48,3.48c0,1.92,1.56,3.48,3.48,3.48s3.48-1.56,3.48-3.48
	C406.91,300.82,405.35,299.26,403.43,299.26z M403.97,304c0,0.07,0,0.12-0.01,0.16c0,0.03-0.02,0.07-0.04,0.12
	c-0.02,0.05-0.06,0.08-0.12,0.09c-0.06,0.02-0.13,0.03-0.23,0.03c-0.09,0-0.17-0.01-0.22-0.03c-0.06-0.02-0.1-0.05-0.12-0.09
	c-0.02-0.04-0.04-0.08-0.04-0.12c0-0.04-0.01-0.09-0.01-0.16v-1.61l-0.06,0.05c-0.12,0.09-0.23,0.14-0.31,0.14
	c-0.09,0-0.18-0.05-0.26-0.14c-0.11-0.12-0.16-0.22-0.16-0.31c0-0.08,0.05-0.17,0.16-0.26l0.74-0.67l0.01-0.01
	c0.08-0.08,0.17-0.12,0.27-0.12c0.08,0,0.14,0.01,0.19,0.02c0.05,0.02,0.09,0.03,0.12,0.05c0.03,0.02,0.05,0.05,0.06,0.09
	s0.02,0.08,0.02,0.11c0,0.03,0,0.07,0,0.13V304z"/>
</svg>
