<?xml version="1.0" encoding="utf-8"?>
<!-- Generator: Adobe Illustrator 23.0.1, SVG Export Plug-In . SVG Version: 6.00 Build 0)  -->
<svg version="1.1" id="Layer_1" xmlns="http://www.w3.org/2000/svg" xmlns:xlink="http://www.w3.org/1999/xlink" x="0px" y="0px"
	 viewBox="0 0 792 612" style="enable-background:new 0 0 792 612;" xml:space="preserve">
<style type="text/css">
	.st0{fill:#B3B3B3;}
</style>
<g>
	<path class="st0" d="M396.41,316.97l-3.74-1l-0.1-0.22c-0.21-0.5-0.56-1.64-0.39-2.43c0-0.01-0.02-0.06-0.07-0.11l-1.74-1.74
		c-0.05-0.05-0.1-0.07-0.11-0.07l0,0c-0.78,0.17-1.93-0.18-2.42-0.39l-0.22-0.1l-1-3.75l0.15-0.19c0.32-0.43,1.14-1.31,1.91-1.55
		c0.01,0,0.04-0.04,0.06-0.11l0.63-2.37c0.02-0.07,0.01-0.12,0-0.13c-0.54-0.59-0.81-1.76-0.88-2.29l-0.03-0.24l2.74-2.74l0.24,0.03
		c0.54,0.07,1.7,0.33,2.3,0.88c0.01,0,0.06,0.01,0.13,0l2.37-0.64c0.07-0.02,0.11-0.05,0.12-0.06c0.24-0.76,1.12-1.58,1.55-1.9
		l0.19-0.15l3.74,1l0.1,0.22c0.21,0.5,0.56,1.64,0.39,2.43c0,0.01,0.02,0.06,0.07,0.11l1.73,1.73c0.05,0.05,0.1,0.07,0.11,0.07l0,0
		c0.78-0.17,1.93,0.18,2.42,0.39l0.22,0.1l1,3.74l-0.15,0.19c-0.32,0.43-1.14,1.31-1.91,1.55c-0.01,0-0.04,0.04-0.06,0.11
		l-0.63,2.37c-0.02,0.07-0.01,0.12,0,0.13c0.54,0.59,0.81,1.76,0.88,2.29l0.03,0.24l-2.74,2.74l-0.24-0.03
		c-0.54-0.07-1.7-0.33-2.3-0.88c-0.01,0-0.06-0.01-0.13,0l-2.37,0.64c-0.07,0.02-0.11,0.05-0.12,0.06c-0.24,0.76-1.12,1.58-1.55,1.9
		L396.41,316.97z M393.41,315.13l2.79,0.75c0.43-0.37,0.9-0.9,1.01-1.26c0.11-0.35,0.41-0.62,0.81-0.73l2.37-0.64
		c0.4-0.11,0.8-0.02,1.07,0.23c0.28,0.25,0.95,0.48,1.51,0.58l2.04-2.04c-0.1-0.56-0.33-1.23-0.58-1.5
		c-0.25-0.27-0.33-0.67-0.23-1.07l0.63-2.37c0.11-0.4,0.38-0.7,0.73-0.81c0.36-0.11,0.89-0.58,1.26-1.01l-0.74-2.78
		c-0.54-0.19-1.23-0.33-1.6-0.25c-0.36,0.08-0.75-0.05-1.04-0.34l-1.74-1.73c-0.29-0.29-0.42-0.68-0.34-1.04
		c0.08-0.37-0.06-1.06-0.25-1.6l-2.78-0.75c-0.43,0.37-0.9,0.9-1.01,1.26c-0.11,0.35-0.41,0.62-0.81,0.73l-2.37,0.64
		c-0.4,0.11-0.8,0.02-1.07-0.23c-0.27-0.25-0.95-0.48-1.51-0.58l-2.04,2.04c0.1,0.56,0.33,1.23,0.58,1.5
		c0.25,0.27,0.33,0.67,0.23,1.07l-0.63,2.37c-0.11,0.4-0.38,0.7-0.73,0.81c-0.36,0.11-0.89,0.58-1.26,1.01l0.74,2.79
		c0.54,0.19,1.23,0.33,1.6,0.25c0.36-0.08,0.74,0.05,1.04,0.34l1.74,1.74c0.29,0.29,0.42,0.68,0.34,1.03
		C393.08,313.9,393.22,314.6,393.41,315.13z M397.26,311.83c-1.47,0-2.85-0.57-3.89-1.61c-1.04-1.04-1.61-2.42-1.61-3.89
		c0-1.47,0.57-2.85,1.61-3.89c2.14-2.14,5.63-2.14,7.78,0l0,0c2.14,2.14,2.14,5.63,0,7.78
		C400.11,311.26,398.73,311.83,397.26,311.83z M397.26,301.84c-1.15,0-2.3,0.44-3.18,1.32c-0.85,0.85-1.32,1.98-1.32,3.18
		c0,1.2,0.47,2.33,1.32,3.18c1.7,1.7,4.66,1.7,6.36,0c1.75-1.75,1.75-4.61,0-6.36C399.56,302.27,398.41,301.84,397.26,301.84z"/>
</g>
</svg>
