<?xml version="1.0" encoding="utf-8"?>
<!-- Generator: Adobe Illustrator 23.0.1, SVG Export Plug-In . SVG Version: 6.00 Build 0)  -->
<svg version="1.1" id="Layer_1" xmlns="http://www.w3.org/2000/svg" xmlns:xlink="http://www.w3.org/1999/xlink" x="0px" y="0px"
	 viewBox="0 0 792 612" style="enable-background:new 0 0 792 612;" xml:space="preserve">
<style type="text/css">
	.st0{fill:#F7FCFE;}
	.st1{fill:#FFFFFF;}
	.st2{opacity:0.39;fill:#747B8D;}
	.st3{fill:#ECF5FC;}
	.st4{fill:#27363D;}
	.st5{opacity:0.44;fill:none;stroke:url(#SVGID_1_);stroke-width:0.5587;stroke-miterlimit:10;}
	.st6{fill:#2E2F32;}
	.st7{fill:#41434A;}
	.st8{fill:url(#SVGID_2_);}
	.st9{fill:#686B76;}
	.st10{fill:none;stroke:#FFFFFF;stroke-width:0.1146;stroke-miterlimit:10;}
	.st11{fill:#5F6371;}
	.st12{fill:#767A89;}
	.st13{opacity:0.15;}
	.st14{fill:url(#SVGID_3_);}
	.st15{fill:#F4F4F4;}
	.st16{opacity:0.34;fill:#FFFFFF;}
	.st17{opacity:0.4;fill:#F5F7FC;}
	.st18{fill:#C4CBD3;}
	.st19{opacity:0.58;}
	.st20{fill:#F6FCFE;}
	.st21{opacity:0.67;fill:#ECF5FC;}
	.st22{font-family:'Lato-Regular';}
	.st23{font-size:3.8091px;}
</style>
<g>
	<g>
		<g>
			<g>
				<path class="st0" d="M453.33,443.08H345.16c-9.27,0-16.79-7.52-16.79-16.79V187.82c0-9.27,7.52-16.79,16.79-16.79h108.16
					c9.27,0,16.79,7.52,16.79,16.79v238.47C470.11,435.56,462.6,443.08,453.33,443.08z"/>
				<path class="st1" d="M453.47,171.02H345.38c-9.29,0-16.83,7.53-16.83,16.83v1.57c0-9.29,7.53-16.83,16.83-16.83h108.09
					c9.29,0,16.83,7.53,16.83,16.83v-1.57C470.29,178.55,462.76,171.02,453.47,171.02z"/>
				<path class="st2" d="M453.47,443.08H345.38c-9.29,0-16.83-7.53-16.83-16.83v-1.57c0,9.29,7.53,16.83,16.83,16.83h108.09
					c9.29,0,16.83-7.53,16.83-16.83v1.57C470.29,435.55,462.76,443.08,453.47,443.08z"/>
				<g>
					<path class="st3" d="M453.01,443.17H345.02c-9.58,0-17.37-7.76-17.37-17.3V187.76c0-9.54,7.79-17.3,17.37-17.3h107.99
						c9.58,0,17.37,7.76,17.37,17.3v238.11C470.38,435.41,462.59,443.17,453.01,443.17z M345.02,171.6
						c-8.95,0-16.23,7.25-16.23,16.16v238.11c0,8.91,7.28,16.16,16.23,16.16h107.99c8.95,0,16.23-7.25,16.23-16.16V187.76
						c0-8.91-7.28-16.16-16.23-16.16H345.02z"/>
				</g>
				<rect x="330.73" y="201.97" class="st4" width="137.38" height="212.77"/>
				<linearGradient id="SVGID_1_" gradientUnits="userSpaceOnUse" x1="330.2235" y1="308.5861" x2="467.9006" y2="308.5861">
					<stop  offset="0.1603" style="stop-color:#BDBEC0"/>
					<stop  offset="0.1834" style="stop-color:#BDBEC0"/>
					<stop  offset="0.8015" style="stop-color:#424143"/>
				</linearGradient>
				<rect x="330.5" y="202.43" class="st5" width="137.12" height="212.32"/>
				<g>
					<path class="st6" d="M411.03,189.88h-21.65c-0.42,0-0.76-0.34-0.76-0.76v-1.03c0-0.42,0.34-0.76,0.76-0.76h21.65
						c0.42,0,0.76,0.34,0.76,0.76v1.03C411.79,189.54,411.45,189.88,411.03,189.88z"/>
					<path class="st7" d="M411.03,189.88h-21.65c-0.42,0-0.76-0.34-0.76-0.76v-1.03c0-0.42,0.34-0.76,0.76-0.76h21.65
						c0.42,0,0.76,0.34,0.76,0.76v1.03C411.79,189.54,411.45,189.88,411.03,189.88z"/>
					<linearGradient id="SVGID_2_" gradientUnits="userSpaceOnUse" x1="400.0724" y1="179.9713" x2="400.2563" y2="192.1085">
						<stop  offset="0.1985" style="stop-color:#424143"/>
						<stop  offset="0.8166" style="stop-color:#BDBEC0"/>
						<stop  offset="0.8397" style="stop-color:#BDBEC0"/>
					</linearGradient>
					<path class="st8" d="M411.03,189.88h-21.65c-0.42,0-0.76-0.34-0.76-0.76v-1.03c0-0.42,0.34-0.76,0.76-0.76h21.65
						c0.42,0,0.76,0.34,0.76,0.76v1.03C411.79,189.54,411.45,189.88,411.03,189.88z"/>
					<path class="st9" d="M411.05,187.33h-21.69c-0.41,0-0.74,0.35-0.74,0.78v0.38c0-0.43,0.33-0.78,0.74-0.78h21.69
						c0.41,0,0.74,0.35,0.74,0.78v-0.38C411.79,187.68,411.46,187.33,411.05,187.33z"/>
					<path class="st9" d="M411.05,189.88h-21.69c-0.41,0-0.74-0.35-0.74-0.78v0.38c0,0.43,0.33,0.78,0.74,0.78h21.69
						c0.41,0,0.74-0.35,0.74-0.78v-0.38C411.79,189.53,411.46,189.88,411.05,189.88z"/>
				</g>
				<path class="st10" d="M393.03,185.07"/>
				<g>
					<path class="st11" d="M414.61,433.18h-27.38c-1.18,0-2.14-0.96-2.14-2.14v-2.11c0-1.18,0.96-2.14,2.14-2.14h27.38
						c1.18,0,2.14,0.96,2.14,2.14v2.11C416.75,432.22,415.79,433.18,414.61,433.18z"/>
					<path class="st12" d="M414.62,433.31h-27.4c-1.25,0-2.26-1.02-2.26-2.28v-2.09c0-1.26,1.01-2.28,2.26-2.28h27.4
						c1.25,0,2.26,1.02,2.26,2.28v2.09C416.88,432.29,415.87,433.31,414.62,433.31z M387.17,426.8c-1.1,0-1.95,1.04-1.95,2.15v2.09
						c0,1.11,0.9,2.01,2,2.01h27.4c1.1,0,2-0.9,2-2.01v-2.09c0-1.11-0.9-2.01-2-2.01L387.17,426.8z"/>
				</g>
				<g class="st13">
					<path class="st6" d="M362.06,428.51h-4.22l0.45-0.43c0.06-0.06,0.07-0.17,0.01-0.23c-0.06-0.07-0.16-0.07-0.22-0.01l-1,0.84
						l1,0.86c0.03,0.03,0.07,0.04,0.11,0.04c0.04,0,0.08-0.02,0.11-0.05c0.06-0.07,0.06-0.17-0.01-0.23l-0.46-0.46h4.23
						c0.2,0,0.43,0.41,0.43,0.96v1.09c0,0.55-0.23,0.96-0.43,0.96h-7.57c-0.09,0-0.16,0.07-0.16,0.16c0,0.09,0.07,0.16,0.16,0.16
						h7.57c0.42,0,0.74-0.56,0.74-1.28v-1.09C362.81,429.08,362.48,428.51,362.06,428.51z"/>
				</g>
				<g class="st13">
					<g>
						<path class="st6" d="M445.26,432.32h-3.99v-3.26c0-0.08,0.06-0.15,0.14-0.15c0.08,0,0.14,0.07,0.14,0.15v2.97h3.43v-2.97
							c0-0.08,0.06-0.15,0.14-0.15c0.08,0,0.14,0.07,0.14,0.15V432.32z"/>
					</g>
					<g>
						<path class="st6" d="M446.91,429.21h-2.43c-0.08,0-0.14-0.07-0.14-0.15s0.06-0.15,0.14-0.15h1.76l-2.98-3.16l-2.97,3.16h1.7
							c0.08,0,0.14,0.07,0.14,0.15s-0.06,0.15-0.14,0.15h-2.37l3.64-3.87L446.91,429.21z"/>
					</g>
				</g>
				<g>
					<g>
						<path class="st1" d="M423.37,182.2c0-1.61,1.24-2.92,2.78-2.92c1.54,0,2.78,1.31,2.78,2.92c0,1.61-1.24,2.92-2.78,2.92
							C424.62,185.12,423.37,183.82,423.37,182.2z"/>
						
							<radialGradient id="SVGID_3_" cx="589.0194" cy="-27.2273" r="4.2597" fx="588.0217" fy="-31.3685" gradientTransform="matrix(0.9324 0.2026 -0.1929 0.9793 -128.2989 89.5311)" gradientUnits="userSpaceOnUse">
							<stop  offset="0" style="stop-color:#1E2756"/>
							<stop  offset="0.2462" style="stop-color:#1E2351"/>
							<stop  offset="0.5704" style="stop-color:#002B3D"/>
							<stop  offset="0.9925" style="stop-color:#2C2A66"/>
						</radialGradient>
						<path class="st14" d="M423.85,181.7c0.26-1.33,1.51-2.19,2.78-1.92c1.27,0.28,2.09,1.58,1.82,2.92
							c-0.26,1.33-1.51,2.19-2.78,1.92C424.41,184.34,423.59,183.04,423.85,181.7z"/>
						<path class="st15" d="M425.77,181.09c0,0,0.13,0.74,1.22,0.83c1.09,0.08,1.11-0.39,0.83-0.76c-0.28-0.38-0.85-1.05-1.53-0.92
							C425.62,180.37,425.77,181.09,425.77,181.09z"/>
					</g>
					<path class="st16" d="M424.81,181.07c0.71-0.89,1.73-1.35,2.91-0.71c-0.41-0.4-0.96-0.63-1.57-0.63
						c-1.29,0-2.35,1.11-2.35,2.47c0,0.9,0.41,1.7,1.1,2.13C424.36,183.65,423.96,182.14,424.81,181.07z"/>
				</g>
				<path class="st17" d="M414.49,426.8h-27.15c-1.17,0-2.12,0.96-2.12,2.14v0.25c0-1.18,0.95-2.14,2.12-2.14h27.15
					c1.17,0,2.12,0.96,2.12,2.14v-0.25C416.61,427.76,415.66,426.8,414.49,426.8z"/>
			</g>
			<path class="st3" d="M327.65,210.5c0,0-3.25,1.22-3.45,2.09c-0.36,1.53-0.29,7.39-0.28,7.71c0.02,1.34,3.74,6.1,3.74,6.1V210.5z"
				/>
			<path class="st3" d="M327.65,237.79c0,0-3.55,1.55-3.68,2.94c-0.15,1.67-0.01,7.3-0.01,7.64c-0.01,3.51,3.69,5.01,3.69,5.01
				V237.79z"/>
		</g>
		<g>
			<g>
				<rect x="335.59" y="206.97" class="st18" width="1.28" height="4.09"/>
				<rect x="337.66" y="208.2" class="st18" width="1.13" height="2.86"/>
				<rect x="339.71" y="209.01" class="st18" width="0.97" height="2.04"/>
			</g>
		</g>
		<g class="st19">
			<polygon class="st20" points="461.88,208.53 461.34,208.53 461.34,207.73 457.62,207.73 457.62,210.21 461.34,210.21 
				461.34,209.32 461.88,209.32 			"/>
			<rect x="460.31" y="207.99" class="st3" width="0.62" height="1.92"/>
		</g>
	</g>
	<text transform="matrix(1 0 0 1 393.8158 209.6271)" class="st21 st22 st23">20 : 45</text>
</g>
</svg>
